<?xml version="1.0" encoding="utf-8"?>
<!-- Generator: Adobe Illustrator 16.0.0, SVG Export Plug-In . SVG Version: 6.00 Build 0)  -->
<!DOCTYPE svg PUBLIC "-//W3C//DTD SVG 1.1//EN" "http://www.w3.org/Graphics/SVG/1.1/DTD/svg11.dtd">
<svg version="1.1" xmlns="http://www.w3.org/2000/svg" xmlns:xlink="http://www.w3.org/1999/xlink" x="0px" y="0px"
	 width="1217.407px" height="783.98px" viewBox="0 0 1217.407 783.98" enable-background="new 0 0 1217.407 783.98"
	 xml:space="preserve">
<g id="Layer_2">
</g>
<g id="Layer_1">
	<g>
		<g>
			<g>
				<path display="none" fill="#FFB061" d="M819.673,153.924c-28.512,3.23-61.964-5.206-95.697-2.106
					c-33.49,2.083-67.262,15.702-90.754,39.576c-23.875,23.484-37.482,57.234-39.56,90.719c-3.095,33.728,5.34,67.188,2.11,95.705
					c3.23,28.514-5.207,61.971-2.105,95.706c2.086,33.491,15.71,67.261,39.588,90.748c23.488,23.871,57.243,37.474,90.725,39.55
					c33.727,3.092,67.181-5.342,95.692-2.112c28.517-3.23,61.974,5.205,95.708,2.105c33.492-2.085,67.262-15.706,90.751-39.581
					c23.873-23.484,37.477-57.235,39.554-90.718c3.093-33.726-5.341-67.183-2.111-95.698c-3.229-28.518,5.206-61.976,2.104-95.709
					c-2.085-33.492-15.707-67.259-39.583-90.747c-23.486-23.871-57.238-37.473-90.722-39.548
					C881.648,148.721,848.19,157.154,819.673,153.924z"/>
				<g display="none">
					<path display="inline" fill="#4C384A" d="M777.519,261.652c29.177,11.771,44.603,56.677,43.298,138.79
						c2.158,43.187,7.892,71.15,16.815,85.981c-0.01,0.771-0.021,1.54-0.031,2.307c-0.952,8.041-7.612,13.116-19.919,15.32
						c-22.013-0.938-36.272-52.78-36.036-169.271c-2.878-9.711-5.695-19.292-8.427-28.666c-2.501-0.156-4.994-0.308-7.478-0.455
						c-14.499,17.091-22.951,38.207-25.096,63.228c-2.508,18.49-3.077,49.509-0.305,89.34
						c-5.563,10.532-12.113,14.912-19.809,13.675c-12.889-2.842-20.871-27.63-20.487-79.25
						c-7.167-52.763-12.254-77.62-19.616-77.814c-1.039,0.072-2.071,0.146-3.098,0.22c-10.408,4.279-16.838,16.796-19.29,37.983
						c0.682,37.91,3.48,77.08,8.281,112.968c0.055,2.372,0.119,4.728,0.192,7.064c-0.127,7.855-5.213,12.348-14.15,13.388
						c-7.23-2.771-14.11-17.667-18.661-50.07c-4.314-31.965-6.3-81.437,1.75-143.221c1.567-7.474,6.058-13.107,14.346-16.996
						c7.598,2.395,11.471,6.33,10.639,11.446c0.465-0.062,0.931-0.124,1.399-0.185c7.146-2.195,14.682-4.344,22.533-6.438
						c11.569,0.304,23.083,9.182,35.409,28.646c0.379,0.183,0.758,0.367,1.138,0.55C740.39,281.6,759.522,265.943,777.519,261.652z"
						/>
					<path display="inline" fill="#4C384A" d="M922.491,274.836c20.899,1.665,35.923,21.443,44.34,61.643
						c-7.379,44.34-27.102,68.634-59.467,69.118c-0.803,0.013-1.608,0.025-2.416,0.037c-0.008,0.63-0.018,1.26-0.026,1.89
						c5.773,38.164,21.821,54.885,46.275,52.858c18.529-1.605,33.713-20.308,44.353-55.553c3.223-1.878,6.329-3.734,9.311-5.564
						c5.85-0.268,9.082,5.877,9.967,18.026c-1.359,22.246-13.214,45.053-46.477,69.095c-7.898,2.669-16.194,5.27-24.797,7.785
						c-30.311,3.145-54.386-16.947-71.654-68.474c-4.738-20.533-7.269-38.042-7.272-51.771c-0.003-2.792-0.009-5.583-0.018-8.372
						c-0.324-43.894,17.727-74.246,49.438-89.595C916.89,275.573,919.706,275.198,922.491,274.836z M903.737,349.934
						c0.006,0.42,0.011,0.841,0.017,1.261c4.509,4.898,8.961,9.783,13.341,14.638c5.91,0.061,11.352-8.543,15.892-25.239
						c-0.081-3.28-0.173-6.549-0.276-9.805c-2.31-12.671-5.079-18.958-8.132-19.115c-1.15-0.054-2.306-0.107-3.465-0.159
						C915.292,311.284,909.821,323.549,903.737,349.934z"/>
				</g>
				<path fill="#FFB061" d="M819.673,153.924c-28.512,3.23-61.964-5.206-95.697-2.106c-33.49,2.083-55.088,30.02-78.58,53.894
					c-23.875,23.484-49.656,42.917-51.733,76.401c-3.095,33.728,5.34,67.188,2.11,95.705c3.23,28.514-5.207,61.971-2.105,95.706
					c2.086,33.491,23.184,63.367,47.062,86.854c23.488,23.871,49.77,41.367,83.251,43.443c33.727,3.092,67.181-5.342,95.692-2.112
					c28.517-3.23,61.974,5.205,95.708,2.105c33.492-2.085,57.192-25.562,80.682-49.437c23.873-23.484,47.546-47.38,49.623-80.862
					c3.093-33.726-5.341-67.183-2.111-95.698c-3.229-28.518,5.206-61.976,2.104-95.709c-2.085-33.492-24.407-55.576-48.283-79.063
					c-23.486-23.871-48.538-49.156-82.021-51.231C881.648,148.721,848.19,157.154,819.673,153.924z"/>
				<g>
					<path fill="#4C384A" d="M777.519,261.652c29.177,11.771,44.603,56.677,43.298,138.79c2.158,43.187,7.892,71.15,16.815,85.981
						c-0.01,0.771-0.021,1.54-0.031,2.307c-0.952,8.041-7.612,13.116-19.919,15.32c-22.013-0.938-36.272-52.78-36.036-169.271
						c-2.878-9.711-5.695-19.292-8.427-28.666c-2.501-0.156-4.994-0.308-7.478-0.455c-14.499,17.091-22.951,38.207-25.096,63.228
						c-2.508,18.49-3.077,49.509-0.305,89.34c-5.563,10.532-12.113,14.912-19.809,13.675c-12.889-2.842-20.871-27.63-20.487-79.25
						c-7.167-52.763-12.254-77.62-19.616-77.814c-1.039,0.072-2.071,0.146-3.098,0.22c-10.408,4.279-16.838,16.796-19.29,37.983
						c0.682,37.91,3.48,77.08,8.281,112.968c0.055,2.372,0.119,4.728,0.192,7.064c-0.127,7.855-5.213,12.348-14.15,13.388
						c-7.23-2.771-14.11-17.667-18.661-50.07c-4.314-31.965-6.3-81.437,1.75-143.221c1.567-7.474,6.058-13.107,14.346-16.996
						c7.598,2.395,11.471,6.33,10.639,11.446c0.465-0.062,0.931-0.124,1.399-0.185c7.146-2.195,14.682-4.344,22.533-6.438
						c11.569,0.304,23.083,9.182,35.409,28.646c0.379,0.183,0.758,0.367,1.138,0.55C740.39,281.6,759.522,265.943,777.519,261.652z"
						/>
					<path fill="#4C384A" d="M922.491,274.836c20.899,1.665,35.923,21.443,44.34,61.643c-7.379,44.34-27.102,68.634-59.467,69.118
						c-0.803,0.013-1.608,0.025-2.416,0.037c-0.008,0.63-0.018,1.26-0.026,1.89c5.773,38.164,21.821,54.885,46.275,52.858
						c18.529-1.605,33.713-20.308,44.353-55.553c3.223-1.878,6.329-3.734,9.311-5.564c5.85-0.268,9.082,5.877,9.967,18.026
						c-1.359,22.246-13.214,45.053-46.477,69.095c-7.898,2.669-16.194,5.27-24.797,7.785c-30.311,3.145-54.386-16.947-71.654-68.474
						c-4.738-20.533-7.269-38.042-7.272-51.771c-0.003-2.792-0.009-5.583-0.018-8.372c-0.324-43.894,17.727-74.246,49.438-89.595
						C916.89,275.573,919.706,275.198,922.491,274.836z M903.737,349.934c0.006,0.42,0.011,0.841,0.017,1.261
						c4.509,4.898,8.961,9.783,13.341,14.638c5.91,0.061,11.352-8.543,15.892-25.239c-0.081-3.28-0.173-6.549-0.276-9.805
						c-2.31-12.671-5.079-18.958-8.132-19.115c-1.15-0.054-2.306-0.107-3.465-0.159
						C915.292,311.284,909.821,323.549,903.737,349.934z"/>
				</g>
			</g>
			<g>
				<path fill="#4C384A" d="M1215.794,732.619c-7.038-8.494-33.943-33.943-33.943-33.943l-51.366,51.363
					c0,0,24.369,24.677,31.799,31.8c8.171,7.831,24.469-7.51,35.626-18.648C1207.422,753.665,1222.348,740.532,1215.794,732.619z"/>
				<polygon fill="#AAD4C8" points="1130.485,750.039 1181.851,698.676 1165.483,682.308 1114.098,733.652 				"/>
				<path fill="#4C384A" d="M1114.098,733.652l51.385-51.345l-142.915-142.915l7.364-9.144
					c30.729-43.011,48.994-95.55,48.994-152.431c0-145.164-117.661-262.854-262.848-262.854
					c-145.152,0-262.814,117.69-262.814,262.854c0,145.154,117.662,262.819,262.814,262.819c53.814,0,103.768-16.194,145.448-43.941
					l8.375-7.238L1114.098,733.652z M819.673,597.937c-121.557,0-220.125-98.541-220.125-220.119
					c0-121.588,98.568-220.122,220.125-220.122c121.583,0,220.129,98.534,220.129,220.122
					C1039.802,499.396,941.256,597.937,819.673,597.937z"/>
			</g>
		</g>
		<g>
			<g>
				<path fill="#4C384A" d="M69.013,296.494c15.234,0,24.465,6.449,27.693,19.341c0,6.154-4.107,9.966-12.308,11.429h-3.956
					c-3.812-2.637-7.185-3.956-10.11-3.956h-3.956c-19.341,8.208-29.012,20.516-29.012,36.924v3.956
					c1.463,9.671,6.003,14.506,13.627,14.506h3.956l30.331-5.715c14.945,1.758,22.418,9.087,22.418,21.979
					c0,19.054-11.58,39.418-34.726,61.102c-10.845,8.201-21.835,12.308-32.968,12.308c-20.221-4.396-30.331-12.747-30.331-25.056
					c2.926-7.321,7.912-10.989,14.945-10.989l13.627,9.671h7.033c21.388-8.201,32.089-21.539,32.089-40.002l-1.758-1.758
					c-7.329,2.638-15.536,3.956-24.616,3.956c-21.69,0-35.022-14.066-40.001-42.199c0-25.495,14.211-46.3,42.639-62.42
					L69.013,296.494z"/>
				<path fill="#4C384A" d="M167.918,306.604c16.408,0,27.542,14.802,33.408,44.397c-7.624,33.119-23.298,49.672-47.035,49.672
					h-1.758v1.318c4.684,26.67,17.144,40.002,37.364,40.002c15.529,0,28.133-13.332,37.804-40.002l9.67-3.956
					c6.442,0,10.55,4.986,12.308,14.946c0,18.173-14.217,35.316-42.639,51.43l-21.1,3.956c-25.207,0-44.109-18.022-56.705-54.067
					c-3.517-14.354-5.275-26.224-5.275-35.605v-5.715c0-29.891,12.452-51.574,37.364-65.057L167.918,306.604z M151.653,361.99v0.879
					l9.671,10.11c4.396,0,8.496-6.003,12.308-18.022v-7.033c-1.47-9.08-3.373-13.627-5.714-13.627h-2.638
					C160.885,334.297,156.338,343.528,151.653,361.99z"/>
				<path fill="#4C384A" d="M309.461,306.604c16.408,0,27.542,14.802,33.408,44.397c-7.624,33.119-23.298,49.672-47.035,49.672
					h-1.758v1.318c4.684,26.67,17.144,40.002,37.364,40.002c15.529,0,28.133-13.332,37.804-40.002l9.67-3.956
					c6.443,0,10.55,4.986,12.308,14.946c0,18.173-14.217,35.316-42.639,51.43l-21.1,3.956c-25.207,0-44.109-18.022-56.705-54.067
					c-3.517-14.354-5.275-26.224-5.275-35.605v-5.715c0-29.891,12.452-51.574,37.364-65.057L309.461,306.604z M293.197,361.99v0.879
					l9.671,10.11c4.396,0,8.496-6.003,12.308-18.022v-7.033c-1.47-9.08-3.373-13.627-5.714-13.627h-2.638
					C302.428,334.297,297.881,343.528,293.197,361.99z"/>
				<path fill="#4C384A" d="M436.059,10.33c6.738,0.295,10.254,5.57,10.55,15.825l-2.198,34.287l-6.154,271.218l0.879,0.439
					c28.717-33.408,47.914-49.816,57.584-49.232h2.198c6.442,4.986,9.52,9.822,9.231,14.506c0,2.349-7.329,9.671-21.979,21.979
					c-22.274,23.449-34.878,39.857-37.804,49.232c-0.591,12.899,21.828,33.559,67.255,61.98
					c13.771,2.933,20.365,8.942,19.781,18.022c-0.591,6.153-5.131,9.67-13.627,10.55c-18.757-0.88-45.716-19.19-80.882-54.947
					h-2.638c-1.758,27.845-1.909,45.428-0.439,52.749c-2.933,21.979-10.11,32.817-21.539,32.528
					c-9.966-1.758-14.801-6.449-14.506-14.066l7.912-11.868l8.352-403.091l1.758-34.727C421.258,14.877,426.677,9.746,436.059,10.33
					z"/>
			</g>
		</g>
	</g>
</g>
</svg>
